<svg xmlns="http://www.w3.org/2000/svg" width="960" height="420" viewBox="0 0 960 420" role="img" aria-labelledby="title desc">
  <title id="title">Authentication flow</title>
  <desc id="desc">A simple flow showing an application sending an authorization token to the Billerix API and receiving a response.</desc>
  <rect width="960" height="420" rx="24" fill="#f7f8fb"/>
  <rect x="56" y="86" width="218" height="248" rx="18" fill="#ffffff" stroke="#d8dee8" stroke-width="2"/>
  <rect x="371" y="86" width="218" height="248" rx="18" fill="#ffffff" stroke="#d8dee8" stroke-width="2"/>
  <rect x="686" y="86" width="218" height="248" rx="18" fill="#ffffff" stroke="#d8dee8" stroke-width="2"/>
  <circle cx="165" cy="154" r="38" fill="#ecfdf3" stroke="#4f9f6f" stroke-width="2"/>
  <path d="M149 156l11 11 23-27" fill="none" stroke="#237a52" stroke-width="7" stroke-linecap="round" stroke-linejoin="round"/>
  <circle cx="480" cy="154" r="38" fill="#eef4ff" stroke="#5b7fcd" stroke-width="2"/>
  <path d="M462 157h36M480 139v36" fill="none" stroke="#365fb3" stroke-width="7" stroke-linecap="round"/>
  <circle cx="795" cy="154" r="38" fill="#fff7ed" stroke="#d28a3e" stroke-width="2"/>
  <path d="M778 154h34M795 137v34" fill="none" stroke="#9a5a18" stroke-width="7" stroke-linecap="round"/>
  <text x="165" y="228" text-anchor="middle" font-family="Inter, Arial, sans-serif" font-size="23" font-weight="700" fill="#182230">Client app</text>
  <text x="480" y="228" text-anchor="middle" font-family="Inter, Arial, sans-serif" font-size="23" font-weight="700" fill="#182230">Authorization</text>
  <text x="795" y="228" text-anchor="middle" font-family="Inter, Arial, sans-serif" font-size="23" font-weight="700" fill="#182230">Billerix API</text>
  <text x="165" y="264" text-anchor="middle" font-family="Inter, Arial, sans-serif" font-size="15" fill="#667085">Creates a signed request</text>
  <text x="480" y="264" text-anchor="middle" font-family="Inter, Arial, sans-serif" font-size="15" fill="#667085">Adds Bearer token</text>
  <text x="795" y="264" text-anchor="middle" font-family="Inter, Arial, sans-serif" font-size="15" fill="#667085">Validates and responds</text>
  <path d="M293 210h58" fill="none" stroke="#98a2b3" stroke-width="3" stroke-linecap="round"/>
  <path d="M343 197l14 13-14 13" fill="none" stroke="#98a2b3" stroke-width="3" stroke-linecap="round" stroke-linejoin="round"/>
  <path d="M608 210h58" fill="none" stroke="#98a2b3" stroke-width="3" stroke-linecap="round"/>
  <path d="M658 197l14 13-14 13" fill="none" stroke="#98a2b3" stroke-width="3" stroke-linecap="round" stroke-linejoin="round"/>
  <rect x="368" y="318" width="224" height="42" rx="12" fill="#182230"/>
  <text x="480" y="345" text-anchor="middle" font-family="SFMono-Regular, Consolas, monospace" font-size="16" fill="#ffffff">Authorization: Bearer TOKEN</text>
</svg>
